<?xml version="1.0" encoding="utf-8"?>
<!-- Generator: Adobe Illustrator 18.1.1, SVG Export Plug-In . SVG Version: 6.00 Build 0)  -->
<svg version="1.1" id="Слой_1" xmlns="http://www.w3.org/2000/svg" xmlns:xlink="http://www.w3.org/1999/xlink" x="0px" y="0px"
	 viewBox="0 0 200 200" enable-background="new 0 0 200 200" xml:space="preserve">
<path fill="#3C3C3B" stroke="#000000" stroke-miterlimit="10" d="M182.7,196.9L2.9,17.2C-1,13.2-1,6.9,2.9,2.9l0,0
	C6.9-1,13.2-1,17.2,2.9l179.8,179.8c3.9,3.9,3.9,10.3,0,14.2l0,0C193,200.9,186.6,200.9,182.7,196.9z"/>
<path fill="#DADADA" stroke="#000000" stroke-miterlimit="10" d="M196.9,17.1L17.3,197C13.4,201,7,201,3.1,197l0,0
	c-3.9-3.9-3.9-10.3,0-14.2L182.7,2.9c3.9-3.9,10.3-3.9,14.2,0l0,0C200.8,6.8,200.8,13.1,196.9,17.1z"/>
</svg>
